<?xml version="1.0" encoding="UTF-8" standalone="no"?>
<svg
   version="1.1"
   id="Logo"
   x="0"
   y="0"
   viewBox="0 0 48 48"
   xml:space="preserve"
   xmlns="http://www.w3.org/2000/svg"
   xmlns:svg="http://www.w3.org/2000/svg"><defs
     id="defs15" /><style
     id="style2">.st0{fill:#4c4c4c}</style><g
     id="g836"
     transform="translate(2.75)"><path
       class="st0"
       d="M 42.5,33.6 V 11.2 L 23.1,0 v 8.6 l 7.6,4.4 c 0.3,0.2 0.3,0.6 0,0.7 l -9,5.2 c -0.3,0.2 -0.6,0.1 -0.8,0 l -9,-5.2 c -0.3,-0.1 -0.3,-0.6 0,-0.7 L 19.5,8.6 V 0 L 0,11.2 v 22.4 -0.1 0.1 L 7.4,29.3 V 20.5 C 7.4,20.2 7.8,20 8,20.1 l 9,5.2 c 0.3,0.2 0.4,0.4 0.4,0.7 v 10.4 c 0,0.3 -0.4,0.5 -0.6,0.4 L 9.2,32.4 1.8,36.7 21.2,48 40.6,36.8 33.2,32.5 25.6,36.9 C 25.3,37.1 25,36.9 25,36.5 V 26.1 c 0,-0.3 0.2,-0.6 0.4,-0.7 l 9,-5.2 c 0.3,-0.2 0.6,0 0.6,0.4 v 8.8 z"
       id="path4" /><path
       d="M 21.2,48 40.6,36.8 33.2,32.5 25.6,36.9 C 25.3,37.1 25,36.9 25,36.5 V 26.1 c 0,-0.3 0.2,-0.6 0.4,-0.7 l 9,-5.2 c 0.3,-0.2 0.6,0 0.6,0.4 v 8.8 l 7.4,4.3 V 11.2 L 21.2,23.5 Z"
       id="path6" /><path
       d="m 23.1,0 v 8.6 l 7.6,4.4 c 0.3,0.2 0.3,0.6 0,0.7 l -9,5.2 c -0.3,0.2 -0.6,0.1 -0.8,0 l -9,-5.2 c -0.3,-0.1 -0.3,-0.6 0,-0.7 L 19.5,8.6 V 0 L 0,11.2 21.2,23.5 42.4,11.2 Z"
       fill="#808080"
       id="path8" /><path
       class="st0"
       d="M 16.9,36.9 9.3,32.5 1.9,36.8 21.3,48 V 23.5 L 0,11.2 v 22.4 -0.1 0.1 L 7.4,29.3 V 20.5 C 7.4,20.2 7.8,20 8,20.1 l 9,5.2 c 0.3,0.2 0.4,0.4 0.4,0.7 v 10.4 c 0.1,0.4 -0.2,0.7 -0.5,0.5 z"
       id="path10" /></g></svg>
